<svg width="24" height="18" fill="none" xmlns="http://www.w3.org/2000/svg"><path d="M23.531 5.953c-1.078.844-2.437 1.875-7.218 5.344-.938.703-2.672 2.25-4.313 2.25-1.688 0-3.375-1.547-4.36-2.25C2.86 7.828 1.5 6.797.423 5.953c-.188-.14-.422 0-.422.234v9.563A2.22 2.22 0 002.25 18h19.5A2.25 2.25 0 0024 15.75V6.187c0-.234-.281-.375-.469-.234zM12 12c1.078.047 2.625-1.36 3.422-1.922 6.234-4.5 6.703-4.922 8.11-6.047.28-.187.468-.515.468-.89V2.25C24 1.031 22.969 0 21.75 0H2.25A2.25 2.25 0 000 2.25v.89c0 .376.14.704.422.891 1.406 1.125 1.875 1.547 8.11 6.047.796.563 2.343 1.969 3.468 1.922z" fill="#fff"/></svg>